<?xml version="1.0" encoding="UTF-8" standalone="no"?><!DOCTYPE svg PUBLIC "-//W3C//DTD SVG 1.1//EN" "http://www.w3.org/Graphics/SVG/1.1/DTD/svg11.dtd"><!-- Generated by graphviz version 2.40.1 (20161225.0304)
 --><!-- Title: G Pages: 1 --><svg xmlns="http://www.w3.org/2000/svg" xmlns:xlink="http://www.w3.org/1999/xlink" width="229pt" height="980pt" viewBox="0.00 0.00 228.70 980.00">
<g id="graph0" class="graph" transform="scale(1 1) rotate(0) translate(4 976)">
<title>G</title>
<polygon fill="#ffffff" stroke="transparent" points="-4,4 -4,-976 224.7008,-976 224.7008,4 -4,4"/>
<!-- 0 7 4 -->
<g id="node1" class="node">
<title>0 7 4</title>
<ellipse fill="#ff0000" stroke="#000000" cx="148.3504" cy="-954" rx="30.2015" ry="18"/>
<text text-anchor="middle" x="148.3504" y="-949.8" font-family="Times,serif" font-size="14.00" fill="#000000">0 7 4</text>
</g>
<!-- 4 7 0 -->
<g id="node2" class="node">
<title>4 7 0</title>
<ellipse fill="none" stroke="#000000" cx="148.3504" cy="-882" rx="30.2015" ry="18"/>
<text text-anchor="middle" x="148.3504" y="-877.8" font-family="Times,serif" font-size="14.00" fill="#000000">4 7 0</text>
</g>
<!-- 0 7 4&#45;&gt;4 7 0 -->
<g id="edge1" class="edge">
<title>0 7 4-&gt;4 7 0</title>
<path fill="none" stroke="#000000" d="M148.3504,-935.8314C148.3504,-928.131 148.3504,-918.9743 148.3504,-910.4166"/>
<polygon fill="#000000" stroke="#000000" points="151.8505,-910.4132 148.3504,-900.4133 144.8505,-910.4133 151.8505,-910.4132"/>
</g>
<!-- 4 3 4 -->
<g id="node3" class="node">
<title>4 3 4</title>
<ellipse fill="none" stroke="#000000" cx="148.3504" cy="-810" rx="30.2015" ry="18"/>
<text text-anchor="middle" x="148.3504" y="-805.8" font-family="Times,serif" font-size="14.00" fill="#000000">4 3 4</text>
</g>
<!-- 4 7 0&#45;&gt;4 3 4 -->
<g id="edge2" class="edge">
<title>4 7 0-&gt;4 3 4</title>
<path fill="none" stroke="#000000" d="M148.3504,-863.8314C148.3504,-856.131 148.3504,-846.9743 148.3504,-838.4166"/>
<polygon fill="#000000" stroke="#000000" points="151.8505,-838.4132 148.3504,-828.4133 144.8505,-838.4133 151.8505,-838.4132"/>
</g>
<!-- 8 3 0 -->
<g id="node4" class="node">
<title>8 3 0</title>
<ellipse fill="none" stroke="#000000" cx="148.3504" cy="-738" rx="30.2015" ry="18"/>
<text text-anchor="middle" x="148.3504" y="-733.8" font-family="Times,serif" font-size="14.00" fill="#000000">8 3 0</text>
</g>
<!-- 4 3 4&#45;&gt;8 3 0 -->
<g id="edge3" class="edge">
<title>4 3 4-&gt;8 3 0</title>
<path fill="none" stroke="#000000" d="M148.3504,-791.8314C148.3504,-784.131 148.3504,-774.9743 148.3504,-766.4166"/>
<polygon fill="#000000" stroke="#000000" points="151.8505,-766.4132 148.3504,-756.4133 144.8505,-766.4133 151.8505,-766.4132"/>
</g>
<!-- 8 0 3 -->
<g id="node5" class="node">
<title>8 0 3</title>
<ellipse fill="none" stroke="#000000" cx="148.3504" cy="-666" rx="30.2015" ry="18"/>
<text text-anchor="middle" x="148.3504" y="-661.8" font-family="Times,serif" font-size="14.00" fill="#000000">8 0 3</text>
</g>
<!-- 8 3 0&#45;&gt;8 0 3 -->
<g id="edge4" class="edge">
<title>8 3 0-&gt;8 0 3</title>
<path fill="none" stroke="#000000" d="M148.3504,-719.8314C148.3504,-712.131 148.3504,-702.9743 148.3504,-694.4166"/>
<polygon fill="#000000" stroke="#000000" points="151.8505,-694.4132 148.3504,-684.4133 144.8505,-694.4133 151.8505,-694.4132"/>
</g>
<!-- 10 0 1 -->
<g id="node6" class="node">
<title>10 0 1</title>
<ellipse fill="none" stroke="#000000" cx="106.3504" cy="-594" rx="35.3587" ry="18"/>
<text text-anchor="middle" x="106.3504" y="-589.8" font-family="Times,serif" font-size="14.00" fill="#000000">10 0 1</text>
</g>
<!-- 8 0 3&#45;&gt;10 0 1 -->
<g id="edge5" class="edge">
<title>8 0 3-&gt;10 0 1</title>
<path fill="none" stroke="#000000" d="M138.397,-648.937C133.3969,-640.3654 127.2287,-629.7914 121.6434,-620.2165"/>
<polygon fill="#000000" stroke="#000000" points="124.5861,-618.3149 116.5241,-611.4407 118.5397,-621.842 124.5861,-618.3149"/>
</g>
<!-- 1 7 3 -->
<g id="node16" class="node">
<title>1 7 3</title>
<ellipse fill="none" stroke="#000000" cx="190.3504" cy="-594" rx="30.2015" ry="18"/>
<text text-anchor="middle" x="190.3504" y="-589.8" font-family="Times,serif" font-size="14.00" fill="#000000">1 7 3</text>
</g>
<!-- 8 0 3&#45;&gt;1 7 3 -->
<g id="edge15" class="edge">
<title>8 0 3-&gt;1 7 3</title>
<path fill="none" stroke="#000000" d="M158.3038,-648.937C163.3039,-640.3654 169.4721,-629.7914 175.0574,-620.2165"/>
<polygon fill="#000000" stroke="#000000" points="178.1611,-621.842 180.1767,-611.4407 172.1147,-618.3149 178.1611,-621.842"/>
</g>
<!-- 10 1 0 -->
<g id="node7" class="node">
<title>10 1 0</title>
<ellipse fill="none" stroke="#000000" cx="106.3504" cy="-522" rx="35.3587" ry="18"/>
<text text-anchor="middle" x="106.3504" y="-517.8" font-family="Times,serif" font-size="14.00" fill="#000000">10 1 0</text>
</g>
<!-- 10 0 1&#45;&gt;10 1 0 -->
<g id="edge6" class="edge">
<title>10 0 1-&gt;10 1 0</title>
<path fill="none" stroke="#000000" d="M106.3504,-575.8314C106.3504,-568.131 106.3504,-558.9743 106.3504,-550.4166"/>
<polygon fill="#000000" stroke="#000000" points="109.8505,-550.4132 106.3504,-540.4133 102.8505,-550.4133 109.8505,-550.4132"/>
</g>
<!-- 6 1 4 -->
<g id="node8" class="node">
<title>6 1 4</title>
<ellipse fill="none" stroke="#000000" cx="106.3504" cy="-450" rx="30.2015" ry="18"/>
<text text-anchor="middle" x="106.3504" y="-445.8" font-family="Times,serif" font-size="14.00" fill="#000000">6 1 4</text>
</g>
<!-- 10 1 0&#45;&gt;6 1 4 -->
<g id="edge7" class="edge">
<title>10 1 0-&gt;6 1 4</title>
<path fill="none" stroke="#000000" d="M106.3504,-503.8314C106.3504,-496.131 106.3504,-486.9743 106.3504,-478.4166"/>
<polygon fill="#000000" stroke="#000000" points="109.8505,-478.4132 106.3504,-468.4133 102.8505,-478.4133 109.8505,-478.4132"/>
</g>
<!-- 6 5 0 -->
<g id="node9" class="node">
<title>6 5 0</title>
<ellipse fill="none" stroke="#000000" cx="106.3504" cy="-378" rx="30.2015" ry="18"/>
<text text-anchor="middle" x="106.3504" y="-373.8" font-family="Times,serif" font-size="14.00" fill="#000000">6 5 0</text>
</g>
<!-- 6 1 4&#45;&gt;6 5 0 -->
<g id="edge8" class="edge">
<title>6 1 4-&gt;6 5 0</title>
<path fill="none" stroke="#000000" d="M106.3504,-431.8314C106.3504,-424.131 106.3504,-414.9743 106.3504,-406.4166"/>
<polygon fill="#000000" stroke="#000000" points="109.8505,-406.4132 106.3504,-396.4133 102.8505,-406.4133 109.8505,-406.4132"/>
</g>
<!-- 2 5 4 -->
<g id="node10" class="node">
<title>2 5 4</title>
<ellipse fill="none" stroke="#000000" cx="106.3504" cy="-306" rx="30.2015" ry="18"/>
<text text-anchor="middle" x="106.3504" y="-301.8" font-family="Times,serif" font-size="14.00" fill="#000000">2 5 4</text>
</g>
<!-- 6 5 0&#45;&gt;2 5 4 -->
<g id="edge9" class="edge">
<title>6 5 0-&gt;2 5 4</title>
<path fill="none" stroke="#000000" d="M106.3504,-359.8314C106.3504,-352.131 106.3504,-342.9743 106.3504,-334.4166"/>
<polygon fill="#000000" stroke="#000000" points="109.8505,-334.4132 106.3504,-324.4133 102.8505,-334.4133 109.8505,-334.4132"/>
</g>
<!-- 2 7 2 -->
<g id="node11" class="node">
<title>2 7 2</title>
<ellipse fill="#00ff00" stroke="#000000" cx="30.3504" cy="-234" rx="30.2015" ry="18"/>
<text text-anchor="middle" x="30.3504" y="-229.8" font-family="Times,serif" font-size="14.00" fill="#000000">2 7 2</text>
</g>
<!-- 2 5 4&#45;&gt;2 7 2 -->
<g id="edge10" class="edge">
<title>2 5 4-&gt;2 7 2</title>
<path fill="none" stroke="#000000" d="M90.2328,-290.7307C79.7243,-280.7753 65.8291,-267.6114 54.0693,-256.4705"/>
<polygon fill="#000000" stroke="#000000" points="56.3735,-253.8322 46.7068,-249.4956 51.5593,-258.9139 56.3735,-253.8322"/>
</g>
<!-- 7 0 4 -->
<g id="node12" class="node">
<title>7 0 4</title>
<ellipse fill="none" stroke="#000000" cx="109.3504" cy="-234" rx="30.2015" ry="18"/>
<text text-anchor="middle" x="109.3504" y="-229.8" font-family="Times,serif" font-size="14.00" fill="#000000">7 0 4</text>
</g>
<!-- 2 5 4&#45;&gt;7 0 4 -->
<g id="edge11" class="edge">
<title>2 5 4-&gt;7 0 4</title>
<path fill="none" stroke="#000000" d="M107.1074,-287.8314C107.4283,-280.131 107.8098,-270.9743 108.1664,-262.4166"/>
<polygon fill="#000000" stroke="#000000" points="111.6637,-262.5503 108.5832,-252.4133 104.6698,-262.2589 111.6637,-262.5503"/>
</g>
<!-- 7 4 0 -->
<g id="node13" class="node">
<title>7 4 0</title>
<ellipse fill="none" stroke="#000000" cx="109.3504" cy="-162" rx="30.2015" ry="18"/>
<text text-anchor="middle" x="109.3504" y="-157.8" font-family="Times,serif" font-size="14.00" fill="#000000">7 4 0</text>
</g>
<!-- 7 0 4&#45;&gt;7 4 0 -->
<g id="edge12" class="edge">
<title>7 0 4-&gt;7 4 0</title>
<path fill="none" stroke="#000000" d="M109.3504,-215.8314C109.3504,-208.131 109.3504,-198.9743 109.3504,-190.4166"/>
<polygon fill="#000000" stroke="#000000" points="112.8505,-190.4132 109.3504,-180.4133 105.8505,-190.4133 112.8505,-190.4132"/>
</g>
<!-- 3 4 4 -->
<g id="node14" class="node">
<title>3 4 4</title>
<ellipse fill="none" stroke="#000000" cx="109.3504" cy="-90" rx="30.2015" ry="18"/>
<text text-anchor="middle" x="109.3504" y="-85.8" font-family="Times,serif" font-size="14.00" fill="#000000">3 4 4</text>
</g>
<!-- 7 4 0&#45;&gt;3 4 4 -->
<g id="edge13" class="edge">
<title>7 4 0-&gt;3 4 4</title>
<path fill="none" stroke="#000000" d="M109.3504,-143.8314C109.3504,-136.131 109.3504,-126.9743 109.3504,-118.4166"/>
<polygon fill="#000000" stroke="#000000" points="112.8505,-118.4132 109.3504,-108.4133 105.8505,-118.4133 112.8505,-118.4132"/>
</g>
<!-- 3 7 1 -->
<g id="node15" class="node">
<title>3 7 1</title>
<ellipse fill="none" stroke="#000000" cx="109.3504" cy="-18" rx="30.2015" ry="18"/>
<text text-anchor="middle" x="109.3504" y="-13.8" font-family="Times,serif" font-size="14.00" fill="#000000">3 7 1</text>
</g>
<!-- 3 4 4&#45;&gt;3 7 1 -->
<g id="edge14" class="edge">
<title>3 4 4-&gt;3 7 1</title>
<path fill="none" stroke="#000000" d="M109.3504,-71.8314C109.3504,-64.131 109.3504,-54.9743 109.3504,-46.4166"/>
<polygon fill="#000000" stroke="#000000" points="112.8505,-46.4132 109.3504,-36.4133 105.8505,-46.4133 112.8505,-46.4132"/>
</g>
<!-- 1 6 4 -->
<g id="node17" class="node">
<title>1 6 4</title>
<ellipse fill="none" stroke="#000000" cx="190.3504" cy="-522" rx="30.2015" ry="18"/>
<text text-anchor="middle" x="190.3504" y="-517.8" font-family="Times,serif" font-size="14.00" fill="#000000">1 6 4</text>
</g>
<!-- 1 7 3&#45;&gt;1 6 4 -->
<g id="edge16" class="edge">
<title>1 7 3-&gt;1 6 4</title>
<path fill="none" stroke="#000000" d="M190.3504,-575.8314C190.3504,-568.131 190.3504,-558.9743 190.3504,-550.4166"/>
<polygon fill="#000000" stroke="#000000" points="193.8505,-550.4132 190.3504,-540.4133 186.8505,-550.4133 193.8505,-550.4132"/>
</g>
<!-- 5 6 0 -->
<g id="node18" class="node">
<title>5 6 0</title>
<ellipse fill="none" stroke="#000000" cx="190.3504" cy="-450" rx="30.2015" ry="18"/>
<text text-anchor="middle" x="190.3504" y="-445.8" font-family="Times,serif" font-size="14.00" fill="#000000">5 6 0</text>
</g>
<!-- 1 6 4&#45;&gt;5 6 0 -->
<g id="edge17" class="edge">
<title>1 6 4-&gt;5 6 0</title>
<path fill="none" stroke="#000000" d="M190.3504,-503.8314C190.3504,-496.131 190.3504,-486.9743 190.3504,-478.4166"/>
<polygon fill="#000000" stroke="#000000" points="193.8505,-478.4132 190.3504,-468.4133 186.8505,-478.4133 193.8505,-478.4132"/>
</g>
<!-- 5 2 4 -->
<g id="node19" class="node">
<title>5 2 4</title>
<ellipse fill="#00ff00" stroke="#000000" cx="190.3504" cy="-378" rx="30.2015" ry="18"/>
<text text-anchor="middle" x="190.3504" y="-373.8" font-family="Times,serif" font-size="14.00" fill="#000000">5 2 4</text>
</g>
<!-- 5 6 0&#45;&gt;5 2 4 -->
<g id="edge18" class="edge">
<title>5 6 0-&gt;5 2 4</title>
<path fill="none" stroke="#000000" d="M190.3504,-431.8314C190.3504,-424.131 190.3504,-414.9743 190.3504,-406.4166"/>
<polygon fill="#000000" stroke="#000000" points="193.8505,-406.4132 190.3504,-396.4133 186.8505,-406.4133 193.8505,-406.4132"/>
</g>
<!-- 9 2 0 -->
<g id="node20" class="node">
<title>9 2 0</title>
<ellipse fill="#00ff00" stroke="#000000" cx="190.3504" cy="-306" rx="30.2015" ry="18"/>
<text text-anchor="middle" x="190.3504" y="-301.8" font-family="Times,serif" font-size="14.00" fill="#000000">9 2 0</text>
</g>
<!-- 5 2 4&#45;&gt;9 2 0 -->
<g id="edge19" class="edge">
<title>5 2 4-&gt;9 2 0</title>
<path fill="none" stroke="#000000" d="M190.3504,-359.8314C190.3504,-352.131 190.3504,-342.9743 190.3504,-334.4166"/>
<polygon fill="#000000" stroke="#000000" points="193.8505,-334.4132 190.3504,-324.4133 186.8505,-334.4133 193.8505,-334.4132"/>
</g>
<!-- 9 0 2 -->
<g id="node21" class="node">
<title>9 0 2</title>
<ellipse fill="#00ff00" stroke="#000000" cx="190.3504" cy="-234" rx="30.2015" ry="18"/>
<text text-anchor="middle" x="190.3504" y="-229.8" font-family="Times,serif" font-size="14.00" fill="#000000">9 0 2</text>
</g>
<!-- 9 2 0&#45;&gt;9 0 2 -->
<g id="edge20" class="edge">
<title>9 2 0-&gt;9 0 2</title>
<path fill="none" stroke="#000000" d="M190.3504,-287.8314C190.3504,-280.131 190.3504,-270.9743 190.3504,-262.4166"/>
<polygon fill="#000000" stroke="#000000" points="193.8505,-262.4132 190.3504,-252.4133 186.8505,-262.4133 193.8505,-262.4132"/>
</g>
</g>
</svg>